<?xml version="1.0" encoding="utf-8"?>
<!-- Generator: Adobe Illustrator 27.0.0, SVG Export Plug-In . SVG Version: 6.00 Build 0)  -->
<svg version="1.1" id="Слой_1" xmlns="http://www.w3.org/2000/svg" xmlns:xlink="http://www.w3.org/1999/xlink" x="0px" y="0px"
	 viewBox="0 0 400 400" enable-background="new 0 0 400 400" xml:space="preserve">
<path d="M152.18,126.06c-0.57,0-1-0.01-1.43,0c-12.75,0.22-22.57-5.12-29.55-15.7c-2.66-4.03-4.31-8.55-4.72-13.35
	c-1.21-13.92,3.92-24.87,15.76-32.48c4.09-2.63,8.65-4.1,13.5-4.62c0.73-0.08,1.46-0.07,2.2-0.08c20.67-0.03,41.33-0.05,62-0.07
	c13.87-0.01,27.73,0.01,41.6,0.01c4.41,0,8.59,1.03,12.57,2.83c5.62,2.55,10.21,6.37,13.73,11.45c3.23,4.66,5.19,9.83,5.69,15.49
	c0.67,7.64-0.84,14.8-5.08,21.26c-5.33,8.1-12.77,13.06-22.32,14.82c-1.91,0.35-3.83,0.44-5.77,0.41c-0.83-0.01-1.66,0-2.59,0
	c-0.03,0.52-0.07,0.91-0.07,1.29c-0.02,7.13-0.04,14.27-0.04,21.4c-0.02,22.47-0.04,44.93-0.06,67.4c0,2.43-0.06,4.87-0.13,7.3
	c-0.05,2.02-1.72,3.62-3.75,3.59c-0.75-0.01-1.52,0.18-2.25-0.22c-1.61-0.87-2.47-2.23-2.48-4.04c-0.03-5.37-0.01-10.73-0.02-16.1
	c0-8.07,0.01-16.13-0.01-24.2c-0.03-19.27-0.08-38.53-0.11-57.8c0-0.43,0-0.86,0-1.35c-5.89-3.02-10.05-7.61-12.69-13.69
	c-0.04,0.16-0.11,0.32-0.11,0.48c-0.02,1.2-0.02,2.4-0.03,3.6c-0.03,11.93-0.06,23.87-0.08,35.8c-0.03,14.13-0.05,28.26-0.08,42.4
	c0,0.83-0.06,1.67-0.03,2.5c0.04,1.33-0.6,2.31-1.6,3.06c-2.28,1.72-5.74,0.63-6.67-2.07c-0.09-0.28-0.12-0.59-0.13-0.88
	c-0.02-0.93-0.03-1.87-0.03-2.8c-0.04-30.1-0.08-60.2-0.12-90.3c0-1.37-0.01-2.73-0.01-4.1c0-3.21-2.59-6.03-5.8-6.32
	c-3.13-0.28-5.89,1.53-6.85,4.53c-0.15,0.46-0.21,0.98-0.21,1.47c-0.06,14.7-0.1,29.4-0.15,44.1c-0.01,3.23-0.09,6.47-0.05,9.7
	c0.04,2.85-2.71,4.81-5.47,4.01c-1.62-0.47-2.69-1.57-2.95-3.31c-0.09-0.59-0.13-1.19-0.13-1.79c-0.03-16.97-0.04-33.93-0.06-50.9
	c0-0.5-0.01-1-0.01-1.5c0.01-3.84-3.57-6.31-6.33-6.36c-2.43-0.04-5.38,1.43-6.49,4.58c-0.14,0.4-0.17,0.85-0.17,1.28
	c-0.06,4.27-0.15,8.53-0.15,12.8c-0.02,17.83-0.02,35.66,0,53.5c0,1.7-0.76,2.93-2.15,3.8c-1.41,0.88-3.4,0.79-4.7-0.24
	c-1.09-0.86-1.77-1.91-1.76-3.4c0.01-6.93-0.03-13.87-0.05-20.8c-0.04-10.53-0.07-21.07-0.11-31.6c0-0.28-0.03-0.57-0.19-0.89
	c-0.14,0.28-0.29,0.56-0.42,0.84c-2.41,5.14-6.09,9.11-10.99,11.94c-0.67,0.38-0.92,0.78-0.92,1.55c-0.02,11.3-0.1,22.6-0.11,33.89
	c-0.02,14.77,0,29.53,0,44.3c0,2.02-1.23,3.74-3.09,4.32c-2.72,0.85-5.57-1.19-5.59-4.04c-0.03-3.87-0.03-7.73-0.04-11.6
	c-0.04-21.27-0.08-42.53-0.11-63.8C152.17,126.99,152.18,126.59,152.18,126.06z M199.9,68.38c0,0.02,0,0.03,0,0.05
	c-17.03,0-34.06,0-51.09,0.01c-1.16,0-2.34,0.06-3.48,0.25c-3.26,0.54-6.29,1.71-9.07,3.5c-5.86,3.76-9.42,9.11-10.9,15.87
	c-0.48,2.19-0.52,4.43-0.39,6.66c0.27,4.65,1.83,8.88,4.58,12.59c3.33,4.49,7.66,7.64,13.1,9.17c3.53,0.99,7.09,1.29,10.66,0.48
	c7.66-1.73,13.62-8.89,13.34-17c-0.11-3.31-1.6-5.75-4.45-7.42c-1.47-0.86-3.06-1.07-4.71-1.09c-2.73-0.03-5.47-0.04-8.2-0.09
	c-2.95-0.05-4.9-2.88-3.95-5.68c0.66-1.93,2.25-3.05,4.32-3.06c28-0.01,55.99-0.02,83.99-0.02c5.8,0,11.6-0.01,17.4,0
	c1.73,0,3.41,1.18,4.03,2.79c0.66,1.7,0.25,3.54-1.09,4.76c-0.9,0.82-1.96,1.22-3.18,1.24c-3.2,0.04-6.4,0.1-9.6,0.15
	c-3.76,0.05-7.68,3.45-7.95,7.72c-0.08,1.26-0.05,2.55,0.18,3.79c1,5.39,3.94,9.45,8.68,12.21c3.93,2.29,8.19,2.54,12.5,1.84
	c5.5-0.9,10.19-3.47,13.94-7.63c5.34-5.92,7.36-12.87,6.1-20.72c-1-6.23-4.13-11.27-9.06-15.17c-3.66-2.9-7.81-4.7-12.51-5.02
	c-2.29-0.15-4.59-0.17-6.89-0.17C230.77,68.37,215.33,68.38,199.9,68.38z"/>
<path d="M144.67,288.4c-1.14,0.43-1.36,0.4-1.89-0.44c-0.46-0.73-0.9-1.48-1.25-2.28c-1.62-3.76-3.22-7.53-4.81-11.31
	c-0.22-0.52-0.35-1.07-0.53-1.61c-0.27-0.82-0.12-1.56,0.36-2.27c0.5-0.75,0.95-1.53,1.4-2.31c1.23-2.12,1.84-4.42,1.97-6.85
	c0.12-2.37,0.11-4.73-0.32-7.07c-0.32-1.69-0.98-3.24-1.95-4.67c-2.41-3.51-5.59-6.05-9.51-7.68c-0.58-0.24-1.21-0.41-1.82-0.47
	c-0.84-0.09-1.19,0.4-0.9,1.18c0.16,0.43,0.43,0.83,0.71,1.19c0.76,0.96,1.76,1.6,2.79,2.23c1.19,0.73,2.39,1.48,3.43,2.39
	c2.5,2.18,3.74,5.04,4.23,8.27c0.33,2.2,0.31,4.38-0.3,6.54c-0.8,2.83-2.52,5.03-4.67,6.96c-0.74,0.67-1.46,1.37-2.16,2.08
	c-0.96,0.97-1.08,2.15-0.77,3.54c1.49-0.04,2.55-1.27,4.11-1.38c2.04,4.53,3.94,9.17,5.74,13.82c-0.93,0.61-1.41,0.59-1.94-0.16
	c-0.44-0.62-0.8-1.31-1.11-2c-0.97-2.19-1.9-4.4-2.86-6.6c-0.2-0.46-0.45-0.89-0.72-1.31c-0.12-0.18-0.32-0.38-0.52-0.42
	c-0.87-0.18-2.43,0.49-2.59,1.43c-0.1,0.59-0.2,1.18-0.22,1.78c-0.06,2.06-0.09,4.13-0.14,6.2c-0.01,0.3-0.04,0.6-0.11,0.89
	c-0.11,0.45-0.43,0.66-0.88,0.66c-0.43,0-0.71-0.25-0.77-0.65c-0.11-0.65-0.22-1.32-0.23-1.98c-0.05-3.97-0.05-7.93-0.09-11.9
	c-0.02-2.6-0.1-5.2-0.12-7.8c-0.01-3.13-1.29-5.81-2.83-8.42c-0.05-0.08-0.12-0.16-0.19-0.23c-0.05-0.04-0.12-0.04-0.3-0.11
	c-0.04,0.41-0.1,0.79-0.11,1.18c-0.08,2.83-0.19,5.66-0.23,8.49c-0.08,6.03-0.12,12.06-0.19,18.1c-0.01,0.7-0.1,1.4-0.19,2.09
	c-0.05,0.42-0.12,0.86-0.63,1.1c-0.5-0.43-0.47-1.02-0.51-1.55c-0.09-1.26-0.18-2.53-0.19-3.79c-0.03-8.5-0.04-17-0.04-25.5
	c0-3.5,0.01-7,0.02-10.5c0-0.32,0-0.64,0-0.97c0.07-0.02,0.13-0.04,0.2-0.06c0.14,0.32,0.28,0.63,0.42,0.95
	c2.25,5.34,4.48,10.69,6.75,16.02c0.59,1.38,1.25,2.73,1.92,4.07c0.45,0.9,0.76,0.92,1.47,0.19c0.79-0.81,1.09-1.76,0.71-2.84
	c-0.71-1.97-1.4-3.96-2.2-5.89c-2.44-5.91-4.94-11.8-7.41-17.7c-0.28-0.67-0.49-1.36-0.73-2.04c0.5-0.41,0.98-0.29,1.42-0.25
	c7.29,0.65,12.69,4.28,16.43,10.47c2.23,3.7,2.84,7.77,2.47,12.03c-0.32,3.68-1.51,7.02-3.72,9.97c-0.46,0.61-0.48,1.1-0.18,1.8
	c2,4.72,3.96,9.46,5.92,14.2C144.43,287.6,144.53,287.98,144.67,288.4z M134.22,262.34c0.08-0.02,0.15-0.04,0.23-0.06
	c0.06-0.37,0.19-0.75,0.17-1.12c-0.05-1.39-0.08-2.79-0.22-4.18c-0.34-3.36-2.16-5.87-4.72-7.9c-0.26-0.2-0.61-0.29-1.16-0.53
	c0.1,0.63,0.09,1.03,0.23,1.36c1.64,3.89,3.3,7.77,4.96,11.65C133.83,261.85,134.05,262.09,134.22,262.34z"/>
<path d="M249.9,273.12c-3.2-1.55-6.01-3.53-9.09-4.96c-0.75,1.16-0.57,3.05,0.43,3.84c0.86,0.68,1.8,1.25,2.74,1.82
	c1.11,0.68,2.24,1.31,3.36,1.98c0.46,0.27,0.89,0.59,1.33,0.88c0.99,0.66,1.48,1.49,1.4,2.76c-0.16,2.46-0.16,4.93-0.25,7.39
	c-0.02,0.49-0.14,0.99-0.29,1.46c-0.05,0.17-0.33,0.38-0.5,0.38c-0.17-0.01-0.44-0.24-0.47-0.42c-0.14-0.78-0.28-1.58-0.3-2.37
	c-0.04-1.97-0.02-3.93-0.02-5.9c0-0.37,0-0.73,0-1.17c-2.55-1.48-5.11-2.95-7.84-4.53c0,0.56,0,0.91,0,1.26
	c-0.01,3.37,0,6.73-0.03,10.1c-0.01,0.76-0.08,1.53-0.2,2.29c-0.12,0.73-0.78,1.04-1.33,0.64c-0.21-0.15-0.37-0.48-0.41-0.74
	c-0.11-0.69-0.17-1.39-0.18-2.09c-0.03-3.1-0.04-6.2-0.07-9.3c-0.01-0.7-0.1-1.39-0.12-2.09c-0.02-1.14-0.62-1.86-1.61-2.31
	c-0.41-0.18-0.85-0.32-1.38-0.52c-0.11,0.47-0.23,0.81-0.26,1.16c-0.15,2.46-0.28,4.92-0.42,7.38c-0.13,2.36-0.24,4.72-0.39,7.08
	c-0.03,0.53-0.04,1.12-0.7,1.61c-0.12-0.4-0.26-0.68-0.29-0.98c-0.1-0.93-0.2-1.86-0.21-2.79c-0.06-9.76-0.12-19.53-0.12-29.29
	c0-2.4,0.18-4.79,0.32-7.19c0.1-1.74,0.67-3.35,1.81-4.67c0.89-1.03,1.82-2.06,2.9-2.87c3.9-2.9,8.04-2.8,12.22-0.64
	c2.04,1.06,3.5,2.74,4.61,4.73c0.56,1.01,0.84,2.11,0.89,3.25c0.13,2.96,0.32,5.92,0.34,8.89c0.06,8.83,0.06,17.66,0.07,26.49
	c0,1.1-0.02,2.2-0.09,3.3c-0.05,0.75-0.24,1.46-1.23,1.75c-0.11-0.34-0.29-0.66-0.31-0.99c-0.14-1.89-0.32-3.79-0.34-5.68
	c-0.12-11.16-0.21-22.33-0.28-33.49c-0.01-0.95-0.17-1.74-0.84-2.45c-0.71-0.75-1.29-1.62-2.01-2.35
	c-3.39-3.45-8.49-3.86-12.35-0.58c-2.12,1.8-3.35,3.98-3.6,6.76c-0.5,5.52-0.46,11.05-0.37,16.58c0.01,0.73,0.29,1.36,0.75,1.92
	c0.79,0.95,1.87,1.43,3.08,1.96c0-0.48,0-0.83,0-1.19c0.01-5-0.02-10,0.03-15c0.02-1.63,0.16-3.26,0.37-4.88
	c0.36-2.76,2.04-4.43,4.76-4.94c1.37-0.25,2.59,0.08,3.66,0.92c0.91,0.72,1.75,1.53,2.65,2.28c0.33,0.28,0.33,0.62,0.33,0.99
	c0,1.27,0.01,2.53,0,3.8c-0.01,6.5-0.03,13-0.05,19.5C249.98,272.25,249.94,272.61,249.9,273.12z M240.44,265.28
	c2.97,1.88,6.71,3.8,7.56,3.85c0.05-0.89,0.15-1.79,0.16-2.68c0.02-4.73,0.02-9.45,0.01-14.18c0-0.76-0.08-1.53-0.17-2.29
	c-0.19-1.48-1.79-3.13-3.26-3.4c-0.67-0.12-1.34-0.08-1.94,0.25c-1.19,0.66-2.05,1.59-2.2,3.01c-0.07,0.63-0.16,1.26-0.16,1.89
	c-0.02,4.39-0.02,8.79-0.03,13.18C240.39,265.01,240.42,265.11,240.44,265.28z"/>
<path d="M110.98,288.76c-0.51-0.9-0.52-1.78-0.54-2.63c-0.11-4.03-0.21-8.06-0.27-12.09c-0.09-6.03-0.13-12.06-0.23-18.1
	c-0.04-2.3-0.2-4.59-0.3-6.89c-0.15-3.65-2.27-5.91-5.41-7.24c-4.7-2-9.93-0.04-12.31,4.45c-0.71,1.34-0.86,2.8-0.88,4.27
	c-0.06,4.27-0.05,8.53-0.07,12.8c-0.01,1.47,0.02,2.93-0.01,4.4c-0.01,0.5,0.16,0.79,0.59,1.03c0.98,0.54,1.94,1.12,3.07,1.77
	c0-0.55,0-0.9,0-1.26c0-6.73,0.01-13.47-0.01-20.2c0-0.64,0.13-1.15,0.61-1.6c0.48-0.46,0.89-0.99,1.34-1.48
	c0.85-0.94,1.88-1.35,3.16-1.46c2.21-0.18,3.92,0.46,5.35,2.22c0.78,0.96,1.21,1.82,1.2,3.09c-0.08,7.27-0.07,14.53-0.1,21.8
	c0,0.42,0,0.85,0,1.47c-0.46-0.2-0.75-0.31-1.02-0.46c-2.01-1.12-4.01-2.25-6.02-3.36c-0.55-0.31-1.12-0.59-1.69-0.86
	c-0.26-0.12-0.54-0.19-0.81-0.28c-0.59,1.45-0.35,2.91,0.77,3.78c1.16,0.89,2.43,1.63,3.67,2.41c1.49,0.94,3,1.86,4.51,2.78
	c0.57,0.35,0.77,0.79,0.75,1.49c-0.08,2.4-0.06,4.8-0.1,7.2c-0.01,0.73-0.11,1.46-0.2,2.18c-0.04,0.34-0.18,0.71-0.57,0.71
	c-0.46,0-0.59-0.41-0.63-0.77c-0.09-0.79-0.14-1.59-0.18-2.39c-0.08-1.7-0.16-3.39-0.19-5.09c-0.02-0.85-0.38-1.48-1.03-1.96
	c-0.86-0.63-1.73-1.25-2.64-1.79c-1.26-0.75-2.56-1.43-3.84-2.14c-0.17-0.09-0.35-0.15-0.64-0.28c-0.02,0.43-0.05,0.78-0.05,1.13
	c-0.02,3.57-0.03,7.13-0.06,10.7c0,0.53-0.08,1.06-0.15,1.59c-0.06,0.42-0.08,1-0.65,0.96c-0.54-0.03-0.53-0.62-0.57-1.03
	c-0.08-0.83-0.16-1.66-0.17-2.49c-0.04-3.03-0.04-6.07-0.07-9.1c0-0.5-0.09-1-0.1-1.49c-0.02-1.17-0.64-1.92-1.64-2.42
	c-0.49-0.25-1.01-0.46-1.54-0.7c-0.42,0.77-0.44,1.51-0.46,2.22c-0.08,3.4-0.12,6.8-0.2,10.2c-0.03,1.26-0.11,2.53-0.22,3.79
	c-0.03,0.36-0.22,0.72-0.35,1.11c-0.74-0.3-0.77-0.89-0.83-1.38c-0.17-1.25-0.36-2.51-0.38-3.77c-0.08-5.5-0.13-11-0.13-16.5
	c0-4.53,0.04-9.07,0.13-13.6c0.03-1.83,0.2-3.66,0.36-5.48c0.05-0.59,0.17-1.21,0.42-1.74c1.55-3.22,3.92-5.64,7.3-6.88
	c4.26-1.55,9.58,0.24,12.47,3.72c0.68,0.82,1.29,1.7,1.86,2.6c0.21,0.34,0.3,0.8,0.3,1.21c0.04,3.57,0.05,7.13,0.07,10.7
	c0.04,8.37,0.09,16.73,0.11,25.1c0,1.46-0.09,2.93-0.18,4.39C111.53,287.66,111.55,288.25,110.98,288.76z M104.35,269.36
	c0.08-1.41,0.21-2.6,0.2-3.78c-0.03-4.19-0.09-8.39-0.17-12.58c-0.02-1-0.14-1.99-0.17-2.99c-0.05-1.6-0.93-2.55-2.3-3.21
	c-2.1-1.02-5.15,0.68-5.22,2.76c-0.02,0.56-0.12,1.13-0.12,1.69c-0.02,4.43-0.02,8.85-0.02,13.28c0,0.19,0.04,0.39,0.07,0.61
	C99.13,266.52,101.51,268.11,104.35,269.36z"/>
<path d="M302.48,304.65c-0.95,0.12-1.9,0.32-2.86,0.33c-5.43,0.09-10.86,0.16-16.3,0.19c-13.8,0.06-27.6,0.1-41.4,0.12
	c-32.4,0.04-64.79,0.05-97.19,0.08c-4.9,0-9.8,0.01-14.7-0.02c-11.06-0.06-22.13-0.12-33.19-0.21c-1.09-0.01-2.18-0.22-3.26-0.39
	c-0.36-0.06-0.7-0.28-1.21-0.49c0.76-0.57,1.45-0.62,2.13-0.63c2.27-0.04,4.53-0.05,6.8-0.06c5.97-0.04,11.93-0.1,17.9-0.1
	c25.96-0.02,51.93-0.02,77.89-0.02c6.43,0,12.87,0.04,19.3,0.06c19.87,0.04,39.73,0.07,59.6,0.14c6.1,0.02,12.2,0.11,18.3,0.22
	c2.4,0.04,4.79,0.21,7.19,0.33c0.35,0.02,0.7,0.1,1.04,0.16C302.5,304.45,302.49,304.55,302.48,304.65z"/>
<path d="M92.4,313.67c1.06-0.49,2.22-0.6,3.37-0.62c2.83-0.06,5.66-0.07,8.5-0.08c6.43-0.02,12.86-0.04,19.29-0.05
	c16.93-0.01,33.86-0.03,50.79-0.02c28.19,0.03,56.39,0.07,84.58,0.13c13.36,0.03,26.73,0.13,40.09,0.21c1,0.01,2,0.07,3,0.11
	c0.27,0.01,0.56,0.01,0.58,0.39c0.02,0.37-0.25,0.42-0.53,0.44c-0.27,0.01-0.53,0.03-0.8,0.04c-6.46,0.07-12.93,0.17-19.39,0.21
	c-19.23,0.1-38.46,0.19-57.69,0.26c-11.9,0.05-23.8,0.08-35.69,0.1c-13.7,0.02-27.4,0.03-41.09,0.03c-12.8,0-25.59-0.02-38.39-0.06
	c-4.5-0.01-8.99-0.09-13.49-0.18c-0.86-0.02-1.71-0.23-2.56-0.38c-0.21-0.04-0.39-0.19-0.59-0.29
	C92.39,313.83,92.39,313.75,92.4,313.67z"/>
<path d="M178.31,238.75c0.13-0.01,0.26-0.04,0.39-0.04c5.57,0.03,11.13,0.05,16.7,0.1c0.46,0,0.93,0.08,1.38,0.18
	c0.54,0.12,0.8,0.45,0.75,0.89c-0.05,0.48-0.37,0.68-0.81,0.74c-0.56,0.07-1.12,0.17-1.69,0.18c-4.67,0.03-9.33,0.04-14,0.06
	c-0.39,0-0.78,0-1.22,0c0,6.49,0,12.87,0,19.29c0.23-0.02,0.39-0.02,0.55-0.04c1.05-0.12,2.1-0.25,3.24-0.39c0-5.14,0-10.23,0-15.28
	c1.29-0.41,12.14-0.22,13.49,0.2c0.21,1.07,0,1.45-1.04,1.56c-1.22,0.13-2.46,0.19-3.69,0.21c-1.8,0.03-3.6,0.01-5.4,0.01
	c-0.33,0-0.66,0-1.08,0c-0.03,0.35-0.06,0.63-0.07,0.92c-0.09,2.7-0.15,5.39-0.26,8.09c-0.04,0.96-0.19,1.92-0.29,2.88
	c-0.05,0.46-0.08,0.91-0.13,1.5c0.44,0,0.8-0.01,1.15,0c2.6,0.05,5.2,0.08,7.79,0.17c0.69,0.02,1.37,0.22,2.05,0.39
	c0.44,0.11,0.77,0.38,0.81,0.9c-0.38,0.49-0.93,0.5-1.46,0.53c-1.66,0.08-3.33,0.16-4.99,0.18c-3.23,0.03-6.47,0.02-9.7,0.03
	c-0.3,0-0.59,0-0.86,0c-0.24,0.8-0.28,18.49-0.05,19.5c0.25,0,0.51,0.02,0.77,0c0.89-0.08,1.78-0.18,2.71-0.28
	c0.07-2.57,0.14-5.07,0.2-7.56c0.06-2.49,0.1-4.99,0.15-7.55c0.83-0.16,1.57-0.36,2.32-0.44c3.12-0.34,6.25-0.45,9.37-0.08
	c0.41,0.05,0.86,0.21,1.17,0.47c0.63,0.53,0.46,1.12-0.35,1.27c-0.75,0.14-1.52,0.2-2.28,0.22c-1.67,0.04-3.33,0.02-5,0.05
	c-0.66,0.01-1.33,0.07-1.99,0.17c-1.15,0.17-1.43,0.43-1.53,1.6c-0.11,1.29-0.18,2.6-0.16,3.89c0.05,2.73,0.23,5.45,0.78,8.25
	c0.34,0.01,0.7,0.04,1.05,0.04c1.97-0.03,3.93-0.1,5.9-0.1c0.96,0,1.93,0.08,2.89,0.19c0.59,0.07,1.2,0.22,1.33,1.11
	c-0.3,0.09-0.6,0.22-0.91,0.25c-1.43,0.13-2.85,0.24-4.28,0.36c-1.69,0.14-3.38,0.28-5.08,0.43c-0.2,0.02-0.4,0.04-0.59,0.08
	c-0.78,0.18-0.99,0.37-1,0.9c-0.01,0.71,0.27,1.16,0.97,1.32c0.71,0.16,1.44,0.25,2.17,0.3c2.19,0.15,4.39,0.26,6.58,0.42
	c0.56,0.04,1.12,0.18,1.65,0.34c0.18,0.05,0.45,0.35,0.42,0.46c-0.06,0.21-0.28,0.45-0.49,0.51c-0.48,0.13-0.98,0.23-1.48,0.23
	c-5.47,0.04-10.93,0.06-16.4,0.08c-0.1,0-0.19-0.04-0.28-0.06C178.24,287.19,178.04,239.6,178.31,238.75z M181.62,286.56
	c2.17,0.06,2.09-0.51,1.99-2.11c0-0.03-0.01-0.07-0.01-0.1c-0.09-0.48-0.35-0.82-0.86-0.8c-0.72,0.04-1.45,0.11-2.16,0.23
	c-0.51,0.09-0.76,0.48-0.82,1c-0.16,1.35,0.18,1.75,1.56,1.77C181.42,286.57,181.52,286.56,181.62,286.56z"/>
<path d="M162.98,240.85c0.11,1.27,0.22,2.42,0.33,3.66c1.48,0.06,2.91,0.09,4.32,0.2c1.37,0.11,2.79-0.09,4.14,0.59
	c-0.25,0.59-0.75,0.64-1.18,0.69c-1.42,0.15-2.85,0.28-4.27,0.37c-1.06,0.07-2.12,0.07-3.3,0.1c0,0.48,0,0.87,0,1.26
	c-0.02,11.97-0.03,23.93-0.06,35.9c0,1.2-0.1,2.4-0.18,3.59c-0.03,0.36-0.09,0.74-0.24,1.06c-0.09,0.2-0.4,0.45-0.58,0.43
	c-0.24-0.03-0.59-0.25-0.65-0.47c-0.17-0.53-0.26-1.11-0.27-1.67c-0.08-3-0.18-6-0.18-9c-0.02-9.93-0.01-19.87-0.01-29.8
	c0-0.4,0-0.8,0-1.27c-1.11,0-2.16,0-3.35,0c-0.01,0.35-0.04,0.74-0.04,1.12c-0.03,9.93-0.04,19.87-0.08,29.8
	c-0.01,2.93-0.12,5.86-0.2,8.8c-0.01,0.53-0.09,1.06-0.19,1.59c-0.05,0.27-0.23,0.51-0.35,0.76c-0.08,0-0.15,0-0.23,0
	c-0.14-0.31-0.34-0.62-0.39-0.95c-0.16-1.02-0.35-2.04-0.37-3.07c-0.14-5.86-0.29-11.73-0.34-17.59c-0.06-6.4-0.01-12.8-0.02-19.2
	c0-0.4,0-0.79,0-1.33c-0.44,0-0.79,0-1.15,0c-1.77-0.01-3.53-0.01-5.3-0.05c-0.46-0.01-0.94-0.08-1.37-0.23
	c-0.19-0.06-0.4-0.35-0.44-0.56c-0.02-0.12,0.26-0.41,0.44-0.44c0.82-0.15,1.64-0.3,2.47-0.33c3.16-0.11,6.33-0.18,9.49-0.26
	c0.36-0.01,0.72-0.03,1.14-0.05c0.11-1.22,0.21-2.37,0.32-3.66c-0.47,0-0.83,0-1.19,0c-3.6-0.02-7.2-0.04-10.8-0.07
	c-0.46,0-0.93-0.1-1.38-0.19c-0.43-0.09-0.56-0.41-0.57-0.82c0-0.4,0.21-0.64,0.56-0.71c0.55-0.11,1.12-0.24,1.68-0.24
	c6.83-0.02,13.66-0.01,20.5,0c0.49,0,0.99,0.11,1.48,0.19c0.45,0.07,0.74,0.33,0.75,0.8c0.01,0.46-0.22,0.77-0.68,0.85
	c-0.46,0.08-0.92,0.16-1.38,0.17c-1.9,0.03-3.8,0.03-5.7,0.04C163.81,240.85,163.45,240.85,162.98,240.85z"/>
<path d="M301.12,246.47c-1.16,0-2.18,0-3.32,0c-0.02,0.39-0.06,0.78-0.06,1.16c0,6.37,0.02,12.73-0.01,19.1
	c-0.03,5.97-0.09,11.93-0.16,17.9c-0.01,0.96-0.11,1.93-0.2,2.89c-0.04,0.38-0.16,0.75-0.26,1.18c-0.72-0.14-0.79-0.66-0.85-1.07
	c-0.19-1.15-0.38-2.31-0.41-3.47c-0.13-4.1-0.24-8.2-0.26-12.29c-0.04-8.03-0.02-16.07-0.02-24.1c0-0.4,0-0.79,0-1.29
	c-0.43-0.02-0.78-0.05-1.13-0.05c-1.77-0.02-3.53-0.02-5.3-0.04c-0.36,0-0.73-0.07-1.09-0.13c-0.37-0.06-0.8-0.13-0.8-0.59
	c-0.01-0.54,0.49-0.58,0.87-0.63c0.79-0.1,1.59-0.18,2.39-0.2c2.07-0.04,4.13-0.01,6.2-0.08c1.23-0.04,2.46-0.15,3.68-0.32
	c0.91-0.12,1.16-0.46,1.06-1.35c-0.08-0.72-0.28-1.43-0.44-2.23c-0.42,0-0.78,0-1.14,0c-3.57-0.02-7.13-0.04-10.7-0.07
	c-0.43,0-0.86-0.09-1.28-0.16c-0.47-0.08-0.67-0.38-0.67-0.85c0-0.45,0.27-0.67,0.66-0.75c0.49-0.1,0.99-0.2,1.48-0.2
	c6.63,0,13.26,0,19.89,0.03c0.56,0,1.13,0.11,1.69,0.2c0.19,0.03,0.43,0.07,0.56,0.2c0.2,0.2,0.44,0.48,0.43,0.72
	c-0.01,0.22-0.3,0.56-0.52,0.61c-0.64,0.15-1.31,0.24-1.97,0.26c-1.7,0.04-3.4,0.02-5.1,0.03c-0.32,0-0.65,0-1.08,0
	c0.12,1.27,0.23,2.42,0.34,3.66c1.44,0.1,2.83,0.18,4.21,0.29c1.35,0.11,2.7,0.19,4.08,0.7c-0.3,0.43-0.66,0.48-1.01,0.5
	c-2.09,0.15-4.18,0.28-6.28,0.41c-0.39,0.02-0.78,0-1.32,0c0,0.55,0,0.97,0,1.39c-0.01,11.03,0,22.07-0.03,33.1
	c-0.01,2.1-0.12,4.19-0.21,6.29c-0.01,0.36-0.08,0.74-0.23,1.06c-0.09,0.2-0.39,0.46-0.57,0.44c-0.24-0.02-0.6-0.25-0.65-0.46
	c-0.17-0.64-0.28-1.3-0.32-1.96c-0.06-1.1-0.08-2.2-0.08-3.3c-0.02-11.73-0.03-23.47-0.05-35.2
	C301.12,247.36,301.12,246.94,301.12,246.47z"/>
<path d="M205.96,238.77c0.41-0.03,0.7-0.06,1-0.06c5.1,0.02,10.2,0.03,15.3,0.07c0.76,0.01,1.52,0.11,2.28,0.19
	c0.48,0.05,0.81,0.29,0.83,0.83c0.01,0.53-0.3,0.8-0.78,0.86c-0.59,0.08-1.19,0.16-1.79,0.16c-2.87,0.02-5.73,0.02-8.6,0.03
	c-0.33,0-0.65,0-1.11,0c0.15,1.09,0.28,2.05,0.42,3.07c0.4,0.03,0.72,0.07,1.05,0.08c2.6,0.08,5.2,0.14,7.79,0.22
	c0.7,0.02,1.4,0.09,2.09,0.2c0.66,0.1,0.94,0.44,0.93,0.98c-0.01,0.5-0.22,0.75-0.92,0.85c-0.75,0.11-1.52,0.16-2.29,0.16
	c-2.43,0.02-4.87,0.01-7.3,0.01c-0.36,0-0.72,0-1.14,0c0,4.49,0,8.87,0,13.35c0.38,0.02,0.73,0.04,1.08,0.05
	c2.56,0.05,5.13,0.08,7.69,0.17c0.66,0.02,1.31,0.2,1.95,0.36c0.46,0.12,0.87,0.36,0.87,0.96c-0.38,0.46-0.93,0.48-1.45,0.51
	c-1.66,0.08-3.33,0.16-4.99,0.18c-3.23,0.03-6.47,0.02-9.7,0.03c-0.29,0-0.59,0-0.99,0c-0.02,0.45-0.06,0.84-0.06,1.22
	c-0.03,7.07-0.05,14.13-0.1,21.2c-0.01,1.06-0.12,2.13-0.19,3.19c-0.01,0.2-0.06,0.4-0.13,0.58c-0.12,0.35-0.4,0.6-0.76,0.49
	c-0.24-0.07-0.55-0.34-0.59-0.56c-0.16-0.91-0.29-1.84-0.32-2.77c-0.07-1.73-0.08-3.47-0.08-5.2c-0.01-13.43-0.01-26.87-0.01-40.3
	C205.96,239.53,205.96,239.17,205.96,238.77z M208.26,246.48c-0.21,1.05-0.18,12.52,0.03,13.27c1.04,0,2.09,0,3.16,0
	c0-4.45,0-8.84,0-13.32c-0.82,0-1.57,0-2.33,0C208.82,246.43,208.53,246.46,208.26,246.48z M209.75,244.21c0,0.01,0,0.03,0,0.04
	c0.33-0.02,0.68,0.02,0.98-0.09c0.25-0.09,0.54-0.31,0.63-0.54c0.72-1.85-0.22-3.02-2.17-2.73c-0.1,0.01-0.19,0.05-0.29,0.06
	c-0.46,0.07-0.72,0.34-0.74,0.79c-0.02,0.53-0.04,1.06,0,1.59c0.05,0.61,0.27,0.8,0.88,0.88
	C209.28,244.23,209.52,244.21,209.75,244.21z"/>
<path d="M262.15,263.55c-0.03-2.02,0.41-3.98,0.92-5.91c0.48-1.83,0.99-3.68,1.72-5.42c2.44-5.8,6.52-9.99,12.45-12.24
	c1.27-0.48,2.62-0.75,3.95-1.04c0.43-0.09,0.95-0.04,1.35,0.13c0.27,0.11,0.51,0.53,0.56,0.85c0.03,0.2-0.25,0.56-0.47,0.67
	c-0.5,0.26-1.05,0.42-1.58,0.59c-1.36,0.45-2.77,0.77-4.07,1.34c-4.39,1.92-7.54,5.21-9.68,9.43c-3.45,6.8-3.91,13.86-1.22,20.99
	c2.26,6,6.44,10.27,12.48,12.59c0.99,0.38,2.05,0.57,3.07,0.86c0.32,0.09,0.64,0.18,0.94,0.32c0.38,0.18,0.62,0.49,0.66,0.93
	c0.07,0.72-0.15,1.06-0.86,0.98c-1.15-0.13-2.34-0.23-3.43-0.59c-7.37-2.45-12.41-7.3-14.89-14.71c-0.87-2.59-1.43-5.26-1.77-7.98
	C262.19,264.75,262.18,264.15,262.15,263.55z"/>
<path d="M268.46,263.6c0.1-1.93,0.2-3.85,0.31-5.78c0.01-0.23,0.06-0.47,0.13-0.68c1.37-4.01,3.36-7.61,6.86-10.19
	c1.58-1.16,3.36-1.89,5.26-2.32c0.32-0.07,0.66-0.11,0.99-0.1c0.65,0.02,0.92,0.25,1.07,0.84c0.12,0.5-0.02,0.8-0.63,1.08
	c-0.45,0.21-0.93,0.38-1.41,0.49c-1.8,0.42-3.34,1.3-4.7,2.52c-2.3,2.04-4.26,4.33-5.2,7.32c-0.39,1.26-0.68,2.58-0.82,3.9
	c-0.33,3.03-0.25,6.06,0.52,9.03c0.81,3.14,2.66,5.62,5,7.79c1.52,1.4,3.19,2.5,5.22,3.02c0.45,0.11,0.87,0.33,1.29,0.53
	c0.18,0.08,0.34,0.21,0.49,0.34c0.37,0.32,0.48,0.74,0.3,1.18c-0.18,0.47-0.63,0.44-1.03,0.38c-2.19-0.35-4.26-1.04-6.12-2.3
	c-2.49-1.7-4.21-4.03-5.62-6.65c-1.25-2.31-1.86-4.76-1.82-7.38c0.02-1,0-2,0-3C268.54,263.61,268.5,263.61,268.46,263.6z"/>
<path d="M213.64,267.89c0,0.48,0.01,0.87,0,1.26c-0.09,5.33-0.17,10.66-0.27,16c-0.01,0.73-0.1,1.46-0.2,2.19
	c-0.04,0.32-0.14,0.66-0.31,0.94c-0.1,0.16-0.38,0.32-0.56,0.31c-0.17-0.02-0.41-0.25-0.46-0.43c-0.12-0.44-0.21-0.91-0.22-1.38
	c-0.05-2.3-0.1-4.6-0.11-6.9c-0.02-4.23,0-8.47,0-12.7c0-0.36,0-0.72,0-1.19c1.46-0.12,2.81-0.31,4.16-0.34
	c2.43-0.06,4.87-0.05,7.3-0.04c0.56,0,1.13,0.1,1.69,0.17c0.36,0.05,0.63,0.24,0.69,0.62c0.07,0.42-0.15,0.73-0.51,0.88
	c-0.36,0.15-0.75,0.27-1.14,0.33c-3.11,0.47-6.23,0.57-9.37,0.28C214.16,267.88,213.99,267.89,213.64,267.89z"/>
<path d="M199.91,159.99c2.56,0.09,4.39,2.02,4.3,4.53c-0.09,2.33-2.15,4.2-4.54,4.1c-2.37-0.1-4.18-2.1-4.09-4.54
	C195.66,161.83,197.68,159.91,199.91,159.99z"/>
<path d="M178.06,176.53c2.35-0.04,4.24,1.83,4.28,4.23c0.04,2.17-2.02,4.18-4.27,4.19c-2.26,0-4.25-1.96-4.21-4.22
	C173.9,178.66,175.53,176.46,178.06,176.53z"/>
<path d="M199.84,335.58c1.12,0,2.15-0.06,3.17,0.01c3.04,0.23,5.17,2.72,4.94,5.77c-0.09,1.17-0.42,2.28-0.94,3.33
	c-0.38,0.75-0.93,1.32-1.73,1.56c-1.11,0.33-2.24,0.63-3.37,0.87c-0.78,0.16-1.3-0.17-1.54-0.93c-0.18-0.56-0.3-1.17-0.32-1.76
	c-0.11-2.79-0.19-5.58-0.27-8.37C199.78,335.94,199.81,335.81,199.84,335.58z M201.79,346.11c1.61-0.17,2.9-0.72,4.03-1.63
	c0.23-0.18,0.33-0.57,0.4-0.88c0.33-1.41,0.29-2.84,0.15-4.27c-0.09-0.88-0.55-1.57-1.35-1.98c-0.47-0.24-0.97-0.46-1.47-0.59
	c-1.51-0.41-2.01-0.11-2.07,1.44c-0.07,1.89-0.02,3.79,0.03,5.69C201.54,344.59,201.69,345.31,201.79,346.11z"/>
<path d="M179.41,338.17c-0.06,0.34-0.18,0.67-0.18,1.01c0,1.1,0.05,2.2,0.05,3.29c0,1.1-0.04,2.19-0.08,3.29
	c-0.01,0.27-0.13,0.54-0.19,0.81c-0.08,0-0.16,0-0.24,0c-0.11-0.54-0.28-1.07-0.31-1.61c-0.11-2.66-0.17-5.32-0.25-7.98
	c0-0.1-0.01-0.21,0.02-0.3c0.14-0.35,0.21-0.89,0.46-1.01c0.5-0.24,0.86,0.23,1.1,0.63c0.37,0.63,0.73,1.27,1.01,1.95
	c0.55,1.32,1.04,2.67,1.57,3.99c0.17,0.42,0.41,0.82,0.72,1.45c0.22-0.47,0.38-0.73,0.48-1.02c0.42-1.19,0.79-2.4,1.23-3.59
	c0.33-0.9,0.72-1.79,1.13-2.66c0.18-0.37,0.37-0.8,0.96-0.86c0.46,0.38,0.49,0.95,0.51,1.5c0.06,1.93,0.1,3.86,0.12,5.79
	c0.01,0.86-0.05,1.73-0.11,2.59c-0.03,0.42-0.13,0.84-0.21,1.35c-0.55-0.37-0.55-0.86-0.56-1.28c-0.04-1.5-0.03-2.99-0.04-4.49
	c0-0.83,0-1.66-0.01-2.5c0-0.22-0.07-0.44-0.14-0.84c-0.22,0.32-0.38,0.47-0.45,0.66c-0.4,1.06-0.79,2.12-1.17,3.18
	c-0.39,1.06-0.76,2.13-1.17,3.18c-0.13,0.34-0.33,0.64-0.58,1.13c-0.26-0.42-0.5-0.7-0.62-1.01c-0.43-1.08-0.83-2.17-1.24-3.26
	c-0.32-0.84-0.62-1.68-0.96-2.52c-0.13-0.33-0.34-0.62-0.51-0.94C179.61,338.15,179.51,338.16,179.41,338.17z"/>
<path d="M237.31,346.8c-0.77-1.28-1.05-8.24-0.64-11.22c1.73,0,3.48-0.21,5.21,0.24c1.04,0.27,1.64,0.92,1.79,2.02
	c0.22,1.59-0.13,2.9-1.57,3.78c-0.17,0.1-0.32,0.23-0.48,0.36c-0.05,0.04-0.07,0.11-0.14,0.19c0.71,1.49,2.02,2.75,2.1,4.53
	c-0.08,0.05-0.15,0.1-0.23,0.15c-0.26-0.31-0.56-0.6-0.78-0.94c-0.55-0.83-1.03-1.71-1.6-2.53c-0.36-0.51-0.78-1.01-1.26-1.4
	c-0.69-0.56-1.54-0.29-1.84,0.55c-0.15,0.43-0.2,0.91-0.24,1.37c-0.05,0.56,0,1.13-0.06,1.69C237.53,346,237.4,346.4,237.31,346.8z
	 M237.65,340.63c1.36-0.14,2.61-0.22,3.85-0.41c0.68-0.1,0.87-0.42,0.86-1.24c-0.01-0.72,0.26-1.57-0.65-2.02
	c-0.06-0.03-0.12-0.07-0.18-0.07c-1.27-0.17-2.54-0.37-3.88-0.26C237.65,337.94,237.65,339.19,237.65,340.63z"/>
<path d="M214.75,341.03c-0.01-1.77,0.48-3.2,1.71-4.33c1.73-1.58,4.07-1.58,5.75,0.06c1.67,1.62,2.08,3.65,1.71,5.88
	c-0.23,1.41-0.93,2.55-2.09,3.39c-2.09,1.5-4.6,1.03-5.98-1.13C215.08,343.68,214.71,342.34,214.75,341.03z M222.7,341.37
	c-0.11-0.79-0.18-1.59-0.35-2.36c-0.15-0.69-0.44-1.31-1.06-1.75c-1.46-1.04-3.21-0.81-4.36,0.59c-1.49,1.84-1.33,5.22,0.32,6.93
	c0.09,0.1,0.19,0.18,0.29,0.27c1.78,1.48,4.22,0.74,4.82-1.49C222.56,342.86,222.59,342.12,222.7,341.37z"/>
<path d="M146.41,335.55c1.66,0.05,3.21-0.14,4.76,0.25c1.29,0.33,2.11,1.11,2.32,2.44c0.21,1.29-0.19,2.36-1.25,3.16
	c-0.29,0.22-0.6,0.41-0.95,0.66c0.67,1.65,1.95,3.02,2.14,4.83c-0.07,0.05-0.14,0.09-0.21,0.14c-0.24-0.29-0.53-0.55-0.73-0.86
	c-0.63-0.98-1.19-2.01-1.86-2.96c-0.37-0.53-0.85-1.05-1.39-1.38c-0.89-0.54-1.55-0.19-1.7,0.85c-0.11,0.79-0.07,1.59-0.13,2.39
	c-0.04,0.58-0.13,1.16-0.22,1.86c-0.55-0.34-0.55-0.75-0.58-1.12c-0.08-0.99-0.19-1.99-0.2-2.99
	C146.39,340.44,146.41,338.08,146.41,335.55z M147.47,340.57c1.29-0.05,2.51-0.08,3.7-0.33c0.93-0.2,1.19-0.56,1.24-1.53
	c0.04-1.05-0.26-1.65-1.14-1.82c-0.9-0.18-1.84-0.24-2.76-0.25c-0.69-0.01-0.98,0.28-1.02,0.97
	C147.42,338.56,147.47,339.52,147.47,340.57z"/>
<path d="M133.19,347.02c-0.66-0.03-0.99-0.27-1.17-0.91c-0.09-0.32-0.07-0.68-0.19-0.98c-0.18-0.41-0.38-0.88-0.7-1.16
	c-1.33-1.17-3.76-0.67-4.54,0.91c-0.21,0.41-0.33,0.87-0.5,1.3c-0.13,0.33-0.23,0.7-0.72,0.72c-0.27-0.35-0.15-0.71-0.07-1.05
	c0.72-3.3,1.83-6.47,3.01-9.62c0.3-0.8,0.69-0.84,1.18-0.15c0.31,0.43,0.57,0.9,0.78,1.39c1.24,2.78,2.13,5.67,2.91,8.6
	c0.07,0.25,0.09,0.52,0.11,0.79C133.28,346.9,133.22,346.96,133.19,347.02z M129.17,337.01c-0.27,0.35-0.49,0.52-0.56,0.75
	c-0.36,1.21-0.69,2.42-1.01,3.64c-0.11,0.44,0.16,0.72,0.58,0.75c0.56,0.05,1.13,0.06,1.69,0.02c0.68-0.06,0.86-0.34,0.69-1.01
	c-0.24-0.97-0.48-1.93-0.77-2.88C129.67,337.88,129.43,337.53,129.17,337.01z"/>
<path d="M164.24,347.11c0-0.3-0.03-0.44,0-0.56c1.04-3.12,2.07-6.24,3.13-9.36c0.2-0.59,0.48-1.17,1.15-1.6
	c0.2,0.26,0.45,0.48,0.58,0.76c1.55,3.11,2.68,6.37,3.41,9.76c0.04,0.2-0.01,0.43-0.03,0.7c-0.59-0.08-0.75-0.53-0.94-0.88
	c-0.29-0.52-0.51-1.08-0.76-1.62c-0.32-0.67-0.82-1.03-1.58-0.97c-0.63,0.05-1.27,0.04-1.89,0.12c-0.75,0.1-1.25,0.46-1.41,1.3
	C165.73,345.7,165.25,346.49,164.24,347.11z M166.93,341.86c0.98,0.39,2.11,0.45,3.21,0.21c-0.27-1.72-1.22-4.44-1.84-5.15
	C167.63,338.53,167.15,340.13,166.93,341.86z"/>
<path d="M262.54,335.67c0.51,0.16,0.67,0.63,0.85,1.04c0.53,1.22,1.05,2.45,1.5,3.7c0.66,1.85,1.27,3.72,1.88,5.58
	c0.11,0.33,0.14,0.69,0.22,1.08c-0.55,0.09-0.79-0.22-0.97-0.51c-0.35-0.56-0.71-1.14-0.95-1.75c-0.46-1.17-1.33-1.59-2.51-1.56
	c-0.23,0.01-0.47,0.03-0.7,0.03c-0.96,0.02-1.53,0.53-1.82,1.42c-0.17,0.5-0.36,1-0.59,1.48c-0.12,0.24-0.34,0.43-0.57,0.7
	c-0.31-0.99-0.02-2.36,1.21-6.18C261.17,337.39,261.69,336.32,262.54,335.67z M262.79,337.07c-0.29,0.23-0.42,0.29-0.48,0.4
	c-0.72,1.23-0.97,2.61-1.23,3.97c-0.08,0.42,0.23,0.69,0.65,0.71c0.6,0.03,1.2,0.05,1.79,0c0.65-0.05,0.77-0.29,0.6-0.95
	c-0.25-0.96-0.49-1.93-0.77-2.89C263.22,337.94,263.01,337.57,262.79,337.07z"/>
<path d="M157.49,341.69c0,1.18-0.05,2.31,0.02,3.43c0.05,0.89,0.29,1.02,1.18,0.81c1.14-0.26,2.25-0.16,3.35,0.18
	c0.23,0.07,0.43,0.25,0.8,0.47c-0.39,0.18-0.6,0.34-0.84,0.39c-1.81,0.34-3.64,0.21-5.53,0.2c0-3.88,0-7.69,0-11.49
	c1.92-0.36,5.03-0.16,5.9,0.4c-0.53,0.46-1.18,0.42-1.78,0.48c-0.66,0.07-1.33,0.03-2,0.07c-0.8,0.05-1.07,0.31-1.14,1.1
	c-0.04,0.5-0.04,1,0,1.5c0.07,1.04,0.32,1.26,1.35,1.32c0.6,0.03,1.2,0.03,1.79,0.1c0.38,0.04,0.77,0.12,1.06,0.6
	C160.31,341.9,158.91,341.41,157.49,341.69z"/>
<path d="M268.39,345.13c0.91-0.22,1.47,0.17,2.07,0.29c0.71,0.15,1.43,0.34,2.14,0.36c0.9,0.02,1.51-0.51,1.72-1.26
	c0.22-0.8-0.04-1.58-0.81-2.08c-0.53-0.34-1.13-0.56-1.68-0.87c-0.69-0.4-1.42-0.76-2-1.28c-1.41-1.28-1.15-3.19,0.47-4.21
	c1.52-0.95,3.96-0.51,4.86,0.81c-0.45,0.24-0.9,0.06-1.33,0.03c-0.66-0.04-1.32-0.11-1.99-0.13c-0.29-0.01-0.6,0.06-0.88,0.14
	c-1.07,0.31-1.32,1.04-0.58,1.86c0.48,0.53,1.1,0.96,1.7,1.37c0.43,0.3,0.97,0.46,1.4,0.76c0.65,0.45,1.33,0.91,1.86,1.48
	c0.77,0.83,0.74,1.81,0.08,2.74c-1.26,1.79-4.63,2.24-6.29,0.83C268.89,345.79,268.71,345.51,268.39,345.13z"/>
<path d="M197.14,335.92c-0.65,0.6-1.43,0.57-2.17,0.65c-0.59,0.06-1.2,0.01-1.8,0.05c-0.92,0.06-1.15,0.31-1.19,1.24
	c-0.01,0.23-0.01,0.47,0,0.7c0.01,1.55,0.21,1.8,1.75,2.17c0.7,0.17,1.41,0.31,2.11,0.62c-0.8,0.08-1.6,0.16-2.4,0.23
	c-1.27,0.12-1.47,0.33-1.4,1.63c0.03,0.53,0.1,1.06,0.17,1.59c0.08,0.6,0.42,0.96,1.04,1.03c0.99,0.11,1.98,0.21,2.97,0.34
	c0.32,0.04,0.62,0.16,0.99,0.27c-0.83,0.75-3.77,1.03-6.21,0.63c0-3.77,0-7.55,0-11.47C193.04,335.57,195.1,335.38,197.14,335.92z"
	/>
<path d="M135.64,335.69c0.61,1.14,0.61,2.3,0.73,3.45c0.15,1.39,0.24,2.78,0.44,4.17c0.08,0.58,0.32,1.16,0.59,1.68
	c0.4,0.76,1.09,1.04,1.94,0.92c1.58-0.22,2.31-0.94,2.45-2.53c0.11-1.26,0.1-2.53,0.17-3.79c0.06-1.13,0.14-2.25,0.23-3.38
	c0.01-0.18,0.12-0.36,0.37-0.55c0.08,0.32,0.21,0.64,0.25,0.97c0.25,2.26,0.29,4.52,0,6.77c-0.05,0.36-0.13,0.72-0.23,1.07
	c-0.36,1.33-1.22,2.11-2.61,2.25c-0.43,0.04-0.86,0.07-1.3,0.05c-1.41-0.06-2.45-0.71-2.84-2.09c-0.27-0.95-0.47-1.95-0.5-2.94
	c-0.05-1.76,0.05-3.52,0.1-5.28C135.45,336.2,135.57,335.95,135.64,335.69z"/>
<path d="M233.43,336.84c-0.28,0.02-0.44,0.06-0.59,0.04c-0.36-0.03-0.73-0.07-1.09-0.12c-3.05-0.39-4.59,1.93-4.5,4.4
	c0.04,1.08,0.34,2.1,0.88,3.04c0.83,1.47,1.99,1.96,3.62,1.52c0.45-0.12,0.88-0.31,1.32-0.45c0.3-0.1,0.62-0.16,1.03-0.26
	c-0.23,0.82-0.75,1.21-1.35,1.5c-1.69,0.82-4.04,0.28-5.28-1.18c-1.81-2.13-1.91-5.7-0.18-7.89c1.09-1.38,2.56-1.98,4.31-1.84
	C232.35,335.65,233,335.96,233.43,336.84z"/>
<path d="M253.16,336.67c-1.09-0.2-2.21,0.16-3.21-0.55c0.55-0.51,1.19-0.46,1.78-0.5c3.18-0.25,5.47-0.08,6.38,0.47
	c-0.39,0.46-0.94,0.46-1.45,0.49c-0.53,0.04-1.06,0.01-1.69,0.01c-0.05,0.58-0.1,1.1-0.13,1.61c-0.09,2.06-0.15,4.12-0.27,6.17
	c-0.05,0.78-0.22,1.56-0.33,2.34c-0.07,0.01-0.15,0.02-0.22,0.03c-0.08-0.18-0.22-0.35-0.25-0.54c-0.13-0.95-0.29-1.91-0.34-2.86
	c-0.11-1.92-0.15-3.85-0.22-5.78C253.21,337.3,253.18,337.04,253.16,336.67z"/>
<path d="M210.98,346.5c-0.12-0.85-0.3-1.7-0.34-2.55c-0.1-1.96-0.15-3.93-0.19-5.89c-0.01-0.63,0.08-1.26,0.17-1.89
	c0.04-0.3,0.18-0.59,0.56-0.6c0.38-0.01,0.53,0.27,0.58,0.58c0.09,0.56,0.19,1.13,0.17,1.69c-0.09,2.49-0.22,4.99-0.35,7.48
	c-0.02,0.3-0.11,0.59-0.18,0.88c-0.03,0.11-0.1,0.21-0.16,0.32C211.17,346.51,211.07,346.5,210.98,346.5z"/>
<path d="M247.17,347.11c-0.77-1.39-0.82-9.66-0.05-11.58c0.12,0.43,0.24,0.71,0.27,1c0.33,3.22,0.32,6.43,0,9.65
	C247.37,346.46,247.26,346.74,247.17,347.11z"/>
<path d="M245.08,332.41c0.37,0.33,0.67,0.61,0.98,0.88c0.71,0.63,1,0.65,1.74,0.08c0.41-0.32,0.81-0.67,1.23-1.01
	c0.32,0.75,0.25,1.12-0.27,1.61c-0.73,0.69-2.02,0.95-2.78,0.56C245.29,334.17,244.91,333.37,245.08,332.41z"/>
</svg>
